<svg width="1920" height="1058" viewBox="0 0 1920 1058" fill="none" xmlns="http://www.w3.org/2000/svg">
<path d="M0 0H1920V1032H0V0Z" fill="#0F0F0F"/>
<g opacity="0.5">
<line x1="185.5" y1="2.18557e-08" x2="185.5" y2="1032" stroke="white" stroke-opacity="0.1"/>
<line x1="495.5" y1="2.18557e-08" x2="495.5" y2="1032" stroke="white" stroke-opacity="0.1"/>
<line x1="805.5" y1="2.18557e-08" x2="805.5" y2="1032" stroke="white" stroke-opacity="0.1"/>
<line x1="1115.5" y1="2.18557e-08" x2="1115.5" y2="1032" stroke="white" stroke-opacity="0.1"/>
<line x1="1425.5" y1="2.18557e-08" x2="1425.5" y2="1032" stroke="white" stroke-opacity="0.1"/>
<line x1="1735.5" y1="2.18557e-08" x2="1735.5" y2="1032" stroke="white" stroke-opacity="0.1"/>
<rect x="186" width="309" height="1032" fill="url(#paint0_linear_2006_112)" fill-opacity="0.03"/>
<rect x="805" width="309" height="1032" fill="url(#paint1_linear_2006_112)" fill-opacity="0.03"/>
<rect x="1426" width="309" height="1032" fill="url(#paint2_linear_2006_112)" fill-opacity="0.03"/>
</g>
<g filter="url(#filter0_f_2006_112)">
<circle cx="1807.5" cy="568.5" r="189.5" fill="#0874DE" fill-opacity="0.7"/>
</g>
<g filter="url(#filter1_f_2006_112)">
<circle cx="1202.5" cy="125.5" r="189.5" fill="#0874DE" fill-opacity="0.7"/>
</g>
<defs>
<filter id="filter0_f_2006_112" x="1318" y="79" width="979" height="979" filterUnits="userSpaceOnUse" color-interpolation-filters="sRGB">
<feFlood flood-opacity="0" result="BackgroundImageFix"/>
<feBlend mode="normal" in="SourceGraphic" in2="BackgroundImageFix" result="shape"/>
<feGaussianBlur stdDeviation="150" result="effect1_foregroundBlur_2006_112"/>
</filter>
<filter id="filter1_f_2006_112" x="713" y="-364" width="979" height="979" filterUnits="userSpaceOnUse" color-interpolation-filters="sRGB">
<feFlood flood-opacity="0" result="BackgroundImageFix"/>
<feBlend mode="normal" in="SourceGraphic" in2="BackgroundImageFix" result="shape"/>
<feGaussianBlur stdDeviation="150" result="effect1_foregroundBlur_2006_112"/>
</filter>
<linearGradient id="paint0_linear_2006_112" x1="340.5" y1="0" x2="340.5" y2="1032" gradientUnits="userSpaceOnUse">
<stop stop-color="white"/>
<stop offset="0.658637" stop-color="white" stop-opacity="0.1"/>
</linearGradient>
<linearGradient id="paint1_linear_2006_112" x1="959.5" y1="0" x2="959.5" y2="1032" gradientUnits="userSpaceOnUse">
<stop stop-color="white"/>
<stop offset="0.658637" stop-color="white" stop-opacity="0.1"/>
</linearGradient>
<linearGradient id="paint2_linear_2006_112" x1="1580.5" y1="0" x2="1580.5" y2="1032" gradientUnits="userSpaceOnUse">
<stop stop-color="white"/>
<stop offset="0.658637" stop-color="white" stop-opacity="0.1"/>
</linearGradient>
</defs>
</svg>
