<svg width="41" height="40" viewBox="0 0 41 40" fill="none" xmlns="http://www.w3.org/2000/svg">
<path d="M20.5 0C31.5456 0 40.5 8.9543 40.5 20C40.5 31.0456 31.5456 40 20.5 40C17.096 40 13.8905 39.1496 11.0846 37.6496L0.5 40L2.85258 29.4194C1.35124 26.6126 0.5 23.4056 0.5 20C0.5 8.9543 9.4543 0 20.5 0ZM20.5 4C11.6634 4 4.5 11.1634 4.5 20C4.5 22.6694 5.15126 25.2362 6.37974 27.5328L7.07904 28.8402L5.7689 34.7326L11.6638 33.4236L12.9704 34.122C15.2663 35.3494 17.8318 36 20.5 36C29.3366 36 36.5 28.8366 36.5 20C36.5 11.1634 29.3366 4 20.5 4ZM22.5 10V20H30.5V24H18.5V10H22.5Z" fill="#0874DE"/>
</svg>
