<svg width="48" height="49" viewBox="0 0 48 49" fill="none" xmlns="http://www.w3.org/2000/svg">
<path d="M12 35.337C6.13634 32.9634 2 27.2148 2 20.5C2 11.6634 9.16344 4.5 18 4.5C24.7898 4.5 30.5918 8.72932 32.9152 14.6973C33.5902 14.5678 34.2872 14.5 35 14.5C41.0752 14.5 46 19.4249 46 25.5C46 30.5352 42.617 34.78 38 36.086V31.8264C40.365 30.703 42 28.2924 42 25.5C42 21.634 38.866 18.5 35 18.5C33.041 18.5 31.2702 19.3046 29.9996 20.6014C29.9998 20.5676 30 20.5338 30 20.5C30 13.8726 24.6274 8.5 18 8.5C11.3726 8.5 6 13.8726 6 20.5C6 24.9416 8.4132 28.8198 12 30.8946V35.337ZM20 34.5C17.7909 34.5 16 32.7092 16 30.5C16 28.2908 17.7909 26.5 20 26.5C22.2092 26.5 24 28.2908 24 30.5C24 32.7092 22.2092 34.5 20 34.5ZM30 40.5C27.7908 40.5 26 38.7092 26 36.5C26 34.2908 27.7908 32.5 30 32.5C32.2092 32.5 34 34.2908 34 36.5C34 38.7092 32.2092 40.5 30 40.5ZM20 46.5C17.7909 46.5 16 44.7092 16 42.5C16 40.2908 17.7909 38.5 20 38.5C22.2092 38.5 24 40.2908 24 42.5C24 44.7092 22.2092 46.5 20 46.5Z" fill="#0874DE"/>
</svg>
