<svg width="49" height="48" viewBox="0 0 49 48" fill="none" xmlns="http://www.w3.org/2000/svg">
<path d="M24.5 46C32.7842 46 39.5 39.2842 39.5 31C39.5 29.269 39.0394 27.6064 38.5 26.0592C35.1666 29.353 32.6334 31 30.9 31C38.8908 17 34.5 11 22.5 3C23.5 12.999 16.9081 17.5475 14.2236 20.0732C11.3157 22.809 9.5 26.6924 9.5 31C9.5 39.2842 16.2157 46 24.5 46ZM25.9188 10.47C32.4022 15.9706 32.4332 20.2446 27.426 29.0172C25.904 31.6838 27.8296 35 30.9 35C32.2768 35 33.6682 34.5984 35.1378 33.8102C33.8958 38.524 29.6038 42 24.5 42C18.4249 42 13.5 37.0752 13.5 31C13.5 27.9216 14.7656 25.0552 16.9645 22.9864C17.2165 22.7494 18.495 21.6162 18.5495 21.5672C19.3972 20.8042 20.0956 20.1326 20.7858 19.3935C23.2466 16.7586 25.0142 13.8326 25.9188 10.47Z" fill="#0874DE"/>
</svg>
