<svg width="49" height="49" viewBox="0 0 49 49" fill="none" xmlns="http://www.w3.org/2000/svg">
<path d="M44.5 22.5V40.5H40.5V34.5H8.5V40.5H4.5V8.5H8.5V28.5H24.5V14.5H36.5C40.9182 14.5 44.5 18.0817 44.5 22.5ZM40.5 28.5V22.5C40.5 20.2909 38.7092 18.5 36.5 18.5H28.5V28.5H40.5ZM16.5 22.5C17.6046 22.5 18.5 21.6046 18.5 20.5C18.5 19.3954 17.6046 18.5 16.5 18.5C15.3954 18.5 14.5 19.3954 14.5 20.5C14.5 21.6046 15.3954 22.5 16.5 22.5ZM16.5 26.5C13.1863 26.5 10.5 23.8138 10.5 20.5C10.5 17.1863 13.1863 14.5 16.5 14.5C19.8137 14.5 22.5 17.1863 22.5 20.5C22.5 23.8138 19.8137 26.5 16.5 26.5Z" fill="#0874DE"/>
</svg>
