<svg width="49" height="48" viewBox="0 0 49 48" fill="none" xmlns="http://www.w3.org/2000/svg">
<g id="shield-user-line 1">
<path id="Vector" d="M8.06614 5.65196L24.5 2L40.9338 5.65196C41.849 5.85532 42.5 6.66694 42.5 7.60434V27.5778C42.5 31.59 40.4948 35.3368 37.1564 37.5624L24.5 46L11.8436 37.5624C8.50522 35.3368 6.5 31.59 6.5 27.5778V7.60434C6.5 6.66694 7.15106 5.85532 8.06614 5.65196ZM10.5 9.20868V27.5778C10.5 30.2526 11.8368 32.7504 14.0624 34.2342L24.5 41.1926L34.9376 34.2342C37.1632 32.7504 38.5 30.2526 38.5 27.5778V9.20868L24.5 6.09758L10.5 9.20868ZM24.5 22C21.7386 22 19.5 19.7614 19.5 17C19.5 14.2386 21.7386 12 24.5 12C27.2614 12 29.5 14.2386 29.5 17C29.5 19.7614 27.2614 22 24.5 22ZM15.5549 32C16.0524 27.5 19.8674 24 24.5 24C29.1326 24 32.9476 27.5 33.445 32H15.5549Z" fill="#0874DE"/>
</g>
</svg>
