<svg width="49" height="48" viewBox="0 0 49 48" fill="none" xmlns="http://www.w3.org/2000/svg">
<path d="M18.5 4.9156V9.16304C12.6363 11.5366 8.5 17.2852 8.5 24C8.5 32.8366 15.6634 40 24.5 40C31.2148 40 36.9634 35.8636 39.337 30H43.5844C41.0358 38.1142 33.4552 44 24.5 44C13.4543 44 4.5 35.0456 4.5 24C4.5 15.0447 10.3858 7.46414 18.5 4.9156ZM24.5 4C35.5456 4 44.5 12.9543 44.5 24C44.5 24.675 44.4666 25.3422 44.4012 26H22.5V4.09876C23.1578 4.03344 23.825 4 24.5 4ZM26.5 8.12378V22H40.3762C39.4738 14.7626 33.7374 9.02628 26.5 8.12378Z" fill="#0874DE"/>
</svg>
