<svg width="49" height="48" viewBox="0 0 49 48" fill="none" xmlns="http://www.w3.org/2000/svg">
<path d="M8.50197 40V28C8.50197 19.1634 15.6654 12 24.5019 12C33.3385 12 40.5019 19.1634 40.5019 28V40H42.5019V44H6.50197V40H8.50197ZM12.502 40H36.5019V28C36.5019 21.3726 31.1293 16 24.5019 16C17.8745 16 12.502 21.3726 12.502 28V40ZM22.5019 4H26.5019V10H22.5019V4ZM40.0583 9.61522L42.8867 12.4437L38.6441 16.6863L35.8157 13.8579L40.0583 9.61522ZM6.11719 12.4437L8.94561 9.61522L13.1882 13.8579L10.3598 16.6863L6.11719 12.4437ZM14.502 28C14.502 22.4772 18.9791 18 24.5019 18V22C21.1883 22 18.502 24.6862 18.502 28H14.502Z" fill="#0874DE"/>
</svg>
