<svg width="49" height="48" viewBox="0 0 49 48" fill="none" xmlns="http://www.w3.org/2000/svg">
<path d="M24.5 2L40.9338 5.65196C41.849 5.85532 42.5 6.66694 42.5 7.60434V27.5778C42.5 31.59 40.4948 35.3368 37.1564 37.5624L24.5 46L11.8436 37.5624C8.50522 35.3368 6.5 31.59 6.5 27.5778V7.60434C6.5 6.66694 7.15106 5.85532 8.06614 5.65196L24.5 2ZM24.5 6.09758L10.5 9.20868V27.5778C10.5 30.2526 11.8368 32.7504 14.0624 34.2342L24.5 41.1926L34.9376 34.2342C37.1632 32.7504 38.5 30.2526 38.5 27.5778V9.20868L24.5 6.09758ZM33.4048 16.4437L36.2332 19.2721L23.5052 32L15.02 23.5148L17.8484 20.6862L23.5038 26.3418L33.4048 16.4437Z" fill="#0874DE"/>
</svg>
